<svg xmlns="http://www.w3.org/2000/svg" width="760" height="310" viewBox="0 0 760 310" role="img" aria-labelledby="title desc">
  <title id="title">Recent public GitHub activity</title>
  <desc id="desc">The latest 100 public GitHub events include 63 pushes, 25 repository creations, 7 deletions, 2 pull requests, 2 forks, and 1 release.</desc>
  <rect width="760" height="310" rx="18" fill="#0d1117" stroke="#30363d"/>
  <rect x="1" y="1" width="758" height="4" rx="2" fill="#a78bfa"/>
  <text x="28" y="38" fill="#f0f6fc" font-family="Arial, Helvetica, sans-serif" font-size="14" font-weight="700" letter-spacing="1.5">RECENT PUBLIC ACTIVITY</text>
  <text x="28" y="61" fill="#8b949e" font-family="Arial, Helvetica, sans-serif" font-size="12">Latest 100 public events · sampled 27 Aug 2026</text>
  <g transform="translate(28 82)">
    <rect width="145" height="56" rx="10" fill="#161b22" stroke="#21262d"/>
    <text x="16" y="26" fill="#a78bfa" font-family="Arial, Helvetica, sans-serif" font-size="24" font-weight="800">100</text>
    <text x="16" y="45" fill="#8b949e" font-family="Arial, Helvetica, sans-serif" font-size="10">EVENTS IN WINDOW</text>
  </g>
  <g transform="translate(188 82)">
    <rect width="145" height="56" rx="10" fill="#161b22" stroke="#21262d"/>
    <text x="16" y="26" fill="#14f195" font-family="Arial, Helvetica, sans-serif" font-size="24" font-weight="800">63</text>
    <text x="16" y="45" fill="#8b949e" font-family="Arial, Helvetica, sans-serif" font-size="10">PUSH EVENTS</text>
  </g>
  <g transform="translate(348 82)">
    <rect width="145" height="56" rx="10" fill="#161b22" stroke="#21262d"/>
    <text x="16" y="26" fill="#4cc9f0" font-family="Arial, Helvetica, sans-serif" font-size="24" font-weight="800">25</text>
    <text x="16" y="45" fill="#8b949e" font-family="Arial, Helvetica, sans-serif" font-size="10">CREATE EVENTS</text>
  </g>
  <g transform="translate(508 82)">
    <rect width="224" height="56" rx="10" fill="#161b22" stroke="#21262d"/>
    <text x="16" y="26" fill="#f0f6fc" font-family="Arial, Helvetica, sans-serif" font-size="24" font-weight="800">27 Aug</text>
    <text x="16" y="45" fill="#8b949e" font-family="Arial, Helvetica, sans-serif" font-size="10">LATEST EVENT DATE</text>
  </g>
  <text x="28" y="170" fill="#c9d1d9" font-family="Arial, Helvetica, sans-serif" font-size="11">EVENT BREAKDOWN</text>
  <g font-family="Arial, Helvetica, sans-serif" font-size="11">
    <text x="28" y="194" fill="#8b949e">Push</text><rect x="115" y="184" width="520" height="12" rx="6" fill="#21262d"/><rect x="115" y="184" width="520" height="12" rx="6" fill="#14f195"/><text x="650" y="194" fill="#14f195">63</text>
    <text x="28" y="218" fill="#8b949e">Create</text><rect x="115" y="208" width="520" height="12" rx="6" fill="#21262d"/><rect x="115" y="208" width="206" height="12" rx="6" fill="#4cc9f0"/><text x="650" y="218" fill="#4cc9f0">25</text>
    <text x="28" y="242" fill="#8b949e">Delete</text><rect x="115" y="232" width="520" height="12" rx="6" fill="#21262d"/><rect x="115" y="232" width="58" height="12" rx="6" fill="#f97316"/><text x="650" y="242" fill="#f97316">7</text>
    <text x="28" y="266" fill="#8b949e">PR / Fork / Release</text><rect x="115" y="256" width="520" height="12" rx="6" fill="#21262d"/><rect x="115" y="256" width="42" height="12" rx="6" fill="#a78bfa"/><text x="650" y="266" fill="#a78bfa">5</text>
  </g>
  <text x="28" y="294" fill="#6e7681" font-family="Arial, Helvetica, sans-serif" font-size="10">SCOPE: PUBLIC EVENTS ONLY · SOURCE: github.com/mrphatom/events/public</text>
</svg>
