<svg xmlns="http://www.w3.org/2000/svg" width="760" height="310" viewBox="0 0 760 310" role="img" aria-labelledby="title desc">
<rect width="100%" height="100%" rx="18" fill="#0d1117" stroke="#30363d"/>
<rect x="1" y="1" width="758" height="4" rx="2" fill="#a78bfa"/>
<title id="title">Recent public GitHub activity</title>
<desc id="desc">The latest 100 public GitHub events, sampled 27 Aug 2026.</desc>
<text x="28" y="38" fill="#f0f6fc" font-family="Arial, Helvetica, sans-serif" font-size="14" font-weight="700" text-anchor="start">RECENT PUBLIC ACTIVITY</text>
<text x="28" y="61" fill="#8b949e" font-family="Arial, Helvetica, sans-serif" font-size="12" font-weight="400" text-anchor="start">Latest 100 public events · refreshed daily</text>
<rect x="28" y="82" width="145" height="56" rx="10" fill="#161b22" stroke="#21262d"/>
<text x="44" y="108" fill="#a78bfa" font-family="Arial, Helvetica, sans-serif" font-size="24" font-weight="800" text-anchor="start">100</text>
<text x="44" y="127" fill="#8b949e" font-family="Arial, Helvetica, sans-serif" font-size="10" font-weight="400" text-anchor="start">EVENTS IN WINDOW</text>
<rect x="188" y="82" width="145" height="56" rx="10" fill="#161b22" stroke="#21262d"/>
<text x="204" y="108" fill="#14f195" font-family="Arial, Helvetica, sans-serif" font-size="24" font-weight="800" text-anchor="start">62</text>
<text x="204" y="127" fill="#8b949e" font-family="Arial, Helvetica, sans-serif" font-size="10" font-weight="400" text-anchor="start">PUSH EVENTS</text>
<rect x="348" y="82" width="145" height="56" rx="10" fill="#161b22" stroke="#21262d"/>
<text x="364" y="108" fill="#4cc9f0" font-family="Arial, Helvetica, sans-serif" font-size="24" font-weight="800" text-anchor="start">26</text>
<text x="364" y="127" fill="#8b949e" font-family="Arial, Helvetica, sans-serif" font-size="10" font-weight="400" text-anchor="start">CREATE EVENTS</text>
<rect x="508" y="82" width="224" height="56" rx="10" fill="#161b22" stroke="#21262d"/>
<text x="524" y="108" fill="#f0f6fc" font-family="Arial, Helvetica, sans-serif" font-size="24" font-weight="800" text-anchor="start">27 Aug 2026</text>
<text x="524" y="127" fill="#8b949e" font-family="Arial, Helvetica, sans-serif" font-size="10" font-weight="400" text-anchor="start">LATEST EVENT DATE</text>
<text x="28" y="170" fill="#c9d1d9" font-family="Arial, Helvetica, sans-serif" font-size="11" font-weight="400" text-anchor="start">EVENT BREAKDOWN</text>
<text x="28" y="194" fill="#8b949e" font-family="Arial, Helvetica, sans-serif" font-size="11" font-weight="400" text-anchor="start">Push</text>
<rect x="115" y="184" width="520" height="12" rx="6" fill="#21262d"/>
<rect x="115" y="184" width="520" height="12" rx="6" fill="#14f195"/>
<text x="650" y="194" fill="#14f195" font-family="Arial, Helvetica, sans-serif" font-size="11" font-weight="400" text-anchor="start">62</text>
<text x="28" y="218" fill="#8b949e" font-family="Arial, Helvetica, sans-serif" font-size="11" font-weight="400" text-anchor="start">Create</text>
<rect x="115" y="208" width="520" height="12" rx="6" fill="#21262d"/>
<rect x="115" y="208" width="218" height="12" rx="6" fill="#4cc9f0"/>
<text x="650" y="218" fill="#4cc9f0" font-family="Arial, Helvetica, sans-serif" font-size="11" font-weight="400" text-anchor="start">26</text>
<text x="28" y="242" fill="#8b949e" font-family="Arial, Helvetica, sans-serif" font-size="11" font-weight="400" text-anchor="start">Delete</text>
<rect x="115" y="232" width="520" height="12" rx="6" fill="#21262d"/>
<rect x="115" y="232" width="59" height="12" rx="6" fill="#f97316"/>
<text x="650" y="242" fill="#f97316" font-family="Arial, Helvetica, sans-serif" font-size="11" font-weight="400" text-anchor="start">7</text>
<text x="28" y="266" fill="#8b949e" font-family="Arial, Helvetica, sans-serif" font-size="11" font-weight="400" text-anchor="start">PR / Fork / Release</text>
<rect x="115" y="256" width="520" height="12" rx="6" fill="#21262d"/>
<rect x="115" y="256" width="42" height="12" rx="6" fill="#a78bfa"/>
<text x="650" y="266" fill="#a78bfa" font-family="Arial, Helvetica, sans-serif" font-size="11" font-weight="400" text-anchor="start">5</text>
<text x="28" y="294" fill="#6e7681" font-family="Arial, Helvetica, sans-serif" font-size="10" font-weight="400" text-anchor="start">SCOPE: PUBLIC EVENTS ONLY · SOURCE: GITHUB API · UPDATED DAILY</text>
</svg>
